<svg xmlns="http://www.w3.org/2000/svg" viewBox="0 0 216.8 41.8">
  <defs>
    <style>
      .cls-1, .cls-3 {
        opacity: 0.9;
      }

      .cls-2, .cls-3, .cls-4 {
        fill: #883fa7;
      }

      .cls-4 {
        font-size: 20px;
        font-family: RobotoCondensed-Regular, Roboto Condensed;
        letter-spacing: 0.08em;
      }
    </style>
  </defs>
  <g id="Logo_Votacion_Roots" data-name="Logo Votacion Roots" transform="translate(-56.2 -13)">
    <g id="pino_circulo-blanco" data-name="pino+circulo-blanco" transform="translate(55.3 12.3)">
      <g id="Group_1" data-name="Group 1" class="cls-1" transform="translate(9.866 5.689)">
        <path id="path14_6_" class="cls-2" d="M53.5,23.467h7.467L57.25,16c-.065.13-3.684,7.4-3.75,7.467" transform="translate(-45.316 -16)"/>
        <path id="path16_6_" class="cls-2" d="M78.7,73.867h7.467c-.033-.1-3.684-7.369-3.75-7.467-.033.1-3.652,7.369-3.717,7.467" transform="translate(-62.3 -49.967)"/>
        <path id="path18_6_" class="cls-2" d="M66.1,65.5c.033.1,3.684,7.369,3.75,7.467.065-.13,3.684-7.369,3.717-7.467H66.1" transform="translate(-53.808 -49.36)"/>
        <path id="path20_6_" class="cls-2" d="M53.5,73.867h7.467c-.033-.1-3.652-7.369-3.717-7.467-.065.1-3.684,7.369-3.75,7.467" transform="translate(-45.316 -49.967)"/>
        <path id="path22_6_" class="cls-2" d="M28.4,73.867h7.467c-.065-.1-3.684-7.369-3.75-7.467-.065.1-3.684,7.369-3.717,7.467" transform="translate(-28.4 -49.967)"/>
        <path id="path24_6_" class="cls-2" d="M41,65.5c.033.1,3.684,7.369,3.717,7.467.065-.1,3.684-7.369,3.75-7.467H41" transform="translate(-36.892 -49.36)"/>
        <path id="path26_6_" class="cls-2" d="M66.1,48.667h7.467c-.033-.1-3.684-7.369-3.717-7.467-.065.1-3.684,7.369-3.75,7.467" transform="translate(-53.808 -32.983)"/>
        <path id="path28_6_" class="cls-2" d="M41,48.667h7.467c-.033-.1-3.684-7.369-3.75-7.467-.065.1-3.684,7.369-3.717,7.467" transform="translate(-36.892 -32.983)"/>
        <path id="path30_6_" class="cls-2" d="M53.5,40.3c.033.1,3.684,7.369,3.75,7.467.065-.1,3.684-7.369,3.75-7.467H53.5" transform="translate(-45.316 -32.377)"/>
        <path id="path32_2_" class="cls-2" d="M53.5,90.7c.033.1,3.684,7.369,3.75,7.467.065-.1,3.684-7.369,3.75-7.467H53.5" transform="translate(-45.316 -66.344)"/>
      </g>
      <path id="Path_1" data-name="Path 1" class="cls-3" d="M21.8,42.5A20.9,20.9,0,1,1,42.7,21.6,20.942,20.942,0,0,1,21.8,42.5Zm0-40.822A19.922,19.922,0,1,0,41.722,21.6,19.94,19.94,0,0,0,21.8,1.678Z"/>
    </g>
    <text id="VOTACIÓN_ROOTS" data-name="VOTACIÓN ROOTS" class="cls-4" transform="translate(108 41)"><tspan x="0" y="0">VOTACIÓN ROOTS</tspan></text>
  </g>
</svg>
